<?xml version="1.0" encoding="utf-8"?>
<!-- Generator: Adobe Illustrator 19.0.0, SVG Export Plug-In . SVG Version: 6.00 Build 0)  -->
<svg version="1.1" id="Layer_1" xmlns="http://www.w3.org/2000/svg" xmlns:xlink="http://www.w3.org/1999/xlink" x="0px" y="0px"
	 viewBox="214 -92.1 1024 1024" style="enable-background:new 214 -92.1 1024 1024;" xml:space="preserve">
<style type="text/css">
	.st0{fill:#57B7DA;}
</style>
<path class="st0" d="M726-77.7c-281.9,0-510.2,228.3-510.2,510.2c0,225.8,146.1,416.4,348.9,484.1c25.5,4.5,35.1-10.9,35.1-24.2
	c0-12.2-0.6-52.3-0.6-95.1c-128.1,23.6-161.3-31.3-171.6-60c-5.8-14.6-30.6-60-52.3-72c-17.8-9.6-43.3-33.2-0.6-33.8
	c40.2-0.6,68.9,37,78.4,52.3c45.9,77.1,119.3,55.5,148.6,42c4.5-33.2,17.8-55.5,32.5-68.3C520.6,644.9,402,600.8,402,405.7
	c0-55.5,19.7-101.4,52.3-137.1c-5.1-12.8-22.9-65.1,5.1-135.2c0,0,42.7-13.4,140.3,52.3c40.9-11.5,84.2-17.2,127.5-17.2
	c43.3,0,86.7,5.8,127.5,17.2c97.6-66.4,140.3-52.3,140.3-52.3c28.1,70.1,10.2,122.5,5.1,135.2c32.5,35.7,52.3,81,52.3,137.1
	c0,195.8-119.3,239.1-232.8,251.9c18.5,15.9,34.5,46.5,34.5,94.4c0,68.3-0.6,123.1-0.6,140.3c0,13.4,9.6,29.3,35.1,24.2
	c201.5-67.6,347.6-258.9,347.6-484.1C1236.2,150.6,1007.9-77.7,726-77.7z"/>
</svg>
