<?xml version="1.0" encoding="utf-8"?>
<!-- Generator: Adobe Illustrator 19.0.0, SVG Export Plug-In . SVG Version: 6.00 Build 0)  -->
<svg version="1.1" id="Layer_1" xmlns="http://www.w3.org/2000/svg" xmlns:xlink="http://www.w3.org/1999/xlink" x="0px" y="0px"
	 viewBox="214 -92.1 1024 1024" style="enable-background:new 214 -92.1 1024 1024;" xml:space="preserve">
<style type="text/css">
	.st0{fill:#57B7DA;}
</style>
<polygon class="st0" points="590.3,189.1 590.3,270.6 818.1,270.6 468.1,620.5 525.8,677.7 875.3,328.7 875.3,555.6 956.8,555.6 
	956.8,229.8 956.8,189.1 916.1,189.1 "/>
<path class="st0" d="M1192.2-68.8H259.9c-12.3,0-22.5,10.1-22.5,22.5V886c0,12.3,10.1,22.5,22.5,22.5h932.3
	c12.3,0,22.5-10.1,22.5-22.5V-46.3C1214.7-58.7,1204.6-68.8,1192.2-68.8z M1133.2,804.6c0,12.3-10.1,22.5-22.5,22.5H341.4
	c-12.3,0-22.5-10.1-22.5-22.5V35.1c0-12.3,10.1-22.5,22.5-22.5h769.4c12.3,0,22.5,10.1,22.5,22.5L1133.2,804.6L1133.2,804.6z"/>
</svg>
