<?xml version="1.0" encoding="utf-8"?>
<!-- Generator: Adobe Illustrator 19.0.0, SVG Export Plug-In . SVG Version: 6.00 Build 0)  -->
<svg version="1.1" id="Layer_1" xmlns="http://www.w3.org/2000/svg" xmlns:xlink="http://www.w3.org/1999/xlink" x="0px" y="0px"
	 viewBox="214 -92.1 1024 1024" style="enable-background:new 214 -92.1 1024 1024;" xml:space="preserve">
<style type="text/css">
	.st0{fill:#6D96B5;}
</style>
<g transform="translate(0,-952.36218)">
	<path class="st0" d="M313,873.9c-43.9,0-79.3,35.4-79.3,79.3v838.2c0,43.9,35.4,79.3,79.3,79.3h362.5c43.9,0,79.3-35.4,79.3-79.3
		V953.2c0-43.9-35.4-79.3-79.3-79.3H313z M279,987.1h430.4v725H279V987.1z M494.4,1757.4c18.8,0,34,15.2,34,34s-15.2,34-34,34
		s-34-15.2-34-34S475.5,1757.4,494.4,1757.4z"/>
</g>
</svg>
