<?xml version="1.0" encoding="utf-8"?>
<!-- Generator: Adobe Illustrator 19.0.0, SVG Export Plug-In . SVG Version: 6.00 Build 0)  -->
<svg version="1.1" id="Layer_1" xmlns="http://www.w3.org/2000/svg" xmlns:xlink="http://www.w3.org/1999/xlink" x="0px" y="0px"
	 viewBox="214 -92.1 1024 1024" style="enable-background:new 214 -92.1 1024 1024;" xml:space="preserve">
<style type="text/css">
	.st0{fill:#6D96B5;}
</style>
<path class="st0" d="M728.4-75.3c132.7,0,258.6,51,350.5,146.3c91.9,91.9,146.3,217.8,146.3,347.1c0,132.7-54.5,258.6-146.3,350.5
	S861.2,915,728.4,915c-136.1,0-258.6-57.9-347.1-146.3C289.4,680.2,235,554.3,235,418.1S289.4,159.5,381.3,71
	C469.8-20.9,592.3-75.3,728.4-75.3z M840.8-10.7c47.6,51,88.5,115.7,115.7,183.8c37.4-13.6,71.5-30.6,105.5-51
	C1004.1,57.4,925.8,9.7,840.8-10.7z M1092.6,162.9c-37.4,20.4-78.3,40.8-119.1,54.5c20.4,64.7,30.6,132.7,30.6,200.8h170.2
	C1174.3,326.3,1147,237.8,1092.6,162.9z M1170.9,465.8h-166.8c-6.8,64.7-20.4,132.7-44.2,194c37.4,13.6,74.9,27.2,108.9,47.6
	C1126.6,639.3,1164.1,554.3,1170.9,465.8z M1034.7,744.8c-30.6-17-64.7-30.6-95.3-40.8c-27.2,54.5-57.9,102.1-98.7,146.3
	C912.2,833.3,980.3,795.9,1034.7,744.8z M755.7,864c54.5-51,98.7-108.9,129.3-173.6c-40.8-10.2-85.1-17-129.3-17
	C755.7,734.6,755.7,799.3,755.7,864z M704.6,673.4c-44.2,0-88.5,6.8-132.7,17c34,64.7,78.3,122.5,132.7,173.6
	C704.6,799.3,704.6,734.6,704.6,673.4z M755.7,622.3c51,3.4,102.1,10.2,149.7,23.8c23.8-57.9,37.4-119.1,40.8-180.4H755.7
	C755.7,516.8,755.7,571.3,755.7,622.3z M704.6,465.8h-194c6.8,61.3,20.4,122.5,40.8,180.4c51-13.6,102.1-20.4,153.1-23.8
	C704.6,571.3,704.6,516.8,704.6,465.8z M755.7,418.1h194c0-61.3-10.2-125.9-27.2-183.8c-54.5,13.6-112.3,23.8-166.8,23.8
	C755.7,312.6,755.7,363.7,755.7,418.1z M704.6,258.2c-57.9,0-112.3-10.2-166.8-23.8c-20.4,57.9-27.2,122.5-27.2,183.8h194
	C704.6,363.7,704.6,312.6,704.6,258.2z M755.7,210.5c47.6,0,98.7-10.2,149.7-20.4c-34-81.7-85.1-156.5-149.7-214.4
	C755.7,54,755.7,132.3,755.7,210.5z M704.6-24.3C640,33.6,588.9,108.4,554.9,190.1c47.6,10.2,98.7,20.4,149.7,20.4
	C704.6,132.3,704.6,54,704.6-24.3z M503.8,173.1C531,105,568.5,40.4,619.5-10.7C534.4,9.7,456.1,57.4,398.3,122
	C429,142.5,466.4,159.5,503.8,173.1z M456.2,418.1c0-68.1,10.2-136.1,30.6-200.8c-44.2-13.6-81.7-34-119.1-54.5
	c-54.5,71.5-81.7,160-85.1,255.2h173.6V418.1z M500.4,659.8c-23.8-61.3-40.8-129.3-44.2-194H286c10.2,91.9,47.6,177,105.5,241.6
	C425.6,687,463,673.4,500.4,659.8z M619.5,850.3c-40.8-44.2-74.9-91.9-98.7-146.3c-34,10.2-64.7,23.8-95.3,40.8
	C480,795.9,544.7,833.3,619.5,850.3z"/>
</svg>
